<svg xmlns="http://www.w3.org/2000/svg" viewBox="0 0 713.47 711.29"><defs><style>.cls-1{fill:#231815;}</style></defs><g id="レイヤー_2" data-name="レイヤー 2"><g id="お客様用レイヤー"><path class="cls-1" d="M352.82.3C534.9.3,683,148.44,683,330.52S534.9,660.74,352.82,660.74,22.6,512.6,22.6,330.52,170.73.3,352.82.3m0-.3C170.57,0,22.3,148.27,22.3,330.52S170.57,661,352.82,661,683.33,512.77,683.33,330.52,535.06,0,352.82,0Z"/><path class="cls-1" d="M330.52,32.15c182.08,0,330.22,148.13,330.22,330.22S512.6,692.59,330.52,692.59.3,544.45.3,362.37,148.43,32.15,330.52,32.15m0-.3C148.27,31.85,0,180.12,0,362.37S148.27,692.89,330.52,692.89,661,544.62,661,362.37,512.77,31.85,330.52,31.85Z"/><path class="cls-1" d="M383,37.53c182.08,0,330.22,148.14,330.22,330.22S565,698,383,698,52.73,549.83,52.73,367.75,200.86,37.53,383,37.53m0-.3C200.7,37.23,52.43,185.5,52.43,367.75S200.7,698.27,383,698.27,713.47,550,713.47,367.75,565.2,37.23,383,37.23Z"/><path class="cls-1" d="M355.84,50.55c182.09,0,330.22,148.14,330.22,330.22S537.93,711,355.84,711,25.62,562.85,25.62,380.77,173.75,50.55,355.84,50.55m0-.3c-182.25,0-330.52,148.27-330.52,330.52S173.59,711.29,355.84,711.29,686.36,563,686.36,380.77,538.09,50.25,355.84,50.25Z"/></g></g></svg>