<svg xmlns="http://www.w3.org/2000/svg" viewBox="0 0 706.54 700.97"><defs><style>.cls-1{opacity:0.6;}.cls-2{fill:#fff;}.cls-3{fill:#231815;}</style></defs><g id="レイヤー_2" data-name="レイヤー 2"><g id="お客様用レイヤー"><g class="cls-1"><path class="cls-2" d="M341.6,1C165.67,1,22.54,144.13,22.54,320.05S165.67,639.11,341.6,639.11s319-143.13,319-319.06S517.53,1,341.6,1Z"/><path class="cls-2" d="M320.05,44.09c-175.93,0-319,143.12-319,319S144.12,682.19,320.05,682.19,639.11,539.06,639.11,363.14,496,44.09,320.05,44.09Z"/><path class="cls-2" d="M386.49,49.29c-175.93,0-319,143.12-319,319S210.56,687.39,386.49,687.39s319-143.13,319-319S562.42,49.29,386.49,49.29Z"/><path class="cls-2" d="M344.52,61.86C168.59,61.86,25.46,205,25.46,380.92S168.59,700,344.52,700s319.05-143.13,319.05-319S520.45,61.86,344.52,61.86Z"/></g><path class="cls-3" d="M341.6,1c175.93,0,319,143.13,319,319.05s-143.12,319.06-319,319.06S22.54,496,22.54,320.05,165.67,1,341.6,1m0-1C165.12,0,21.54,143.58,21.54,320.05S165.12,640.11,341.6,640.11s320-143.58,320-320.06S518.07,0,341.6,0Z"/><path class="cls-3" d="M320.05,44.09c175.93,0,319.06,143.12,319.06,319S496,682.19,320.05,682.19,1,539.06,1,363.14s143.12-319,319.05-319m0-1c-176.48,0-320,143.57-320,320S143.57,683.19,320.05,683.19,640.11,539.62,640.11,363.14s-143.58-320-320.06-320Z"/><path class="cls-3" d="M386.49,49.29c175.93,0,319,143.12,319,319s-143.12,319.05-319,319.05-319-143.13-319-319,143.12-319,319.05-319m0-1c-176.48,0-320,143.57-320,320S210,688.39,386.49,688.39s320-143.57,320-320-143.57-320-320-320Z"/><path class="cls-3" d="M344.52,61.86c175.93,0,319.05,143.13,319.05,319.06S520.45,700,344.52,700,25.46,556.84,25.46,380.92,168.59,61.86,344.52,61.86m0-1C168,60.86,24.46,204.44,24.46,380.92S168,701,344.52,701s320.05-143.58,320.05-320S521,60.86,344.52,60.86Z"/></g></g></svg>