<svg xmlns="http://www.w3.org/2000/svg" viewBox="0 0 18.42 214.94"><defs><style>.cls-1{fill:#231815;}</style></defs><g id="レイヤー_2" data-name="レイヤー 2"><g id="text"><path class="cls-1" d="M3.22,3.08c0,1.52-.7,2.56-1.58,2.56a.75.75,0,0,1-.78-.78.83.83,0,0,1,.54-.79A2.49,2.49,0,0,0,2.8,1.75c0-.12.25-.12.27,0a5.68,5.68,0,0,1,.13.85H8.41V1.41A8.39,8.39,0,0,0,8.31,0c2,.21,2.21.36,2.21.57s-.16.32-.67.55V2.6h5.47c.55-.68.69-.76.82-.76s.3.12,1.1.86c.42.38.46.51.46.64s-.14.36-.74.36a.58.58,0,0,0-.46.19,7.67,7.67,0,0,1-1.43,1.22c-.07.06-.2,0-.17-.13a10.07,10.07,0,0,0,.63-1.9Zm4.27,8.58A14.24,14.24,0,0,0,8.05,9H5.69v.13c0,.49-.23.68-.8.68s-.61-.15-.61-.59.06-.81.06-2.73a20,20,0,0,0-.07-2.15,14.87,14.87,0,0,1,1.65.82h6.55c.59-.63.69-.69.8-.69s.28,0,.89.57c.29.25.34.37.34.48s-.09.25-.51.53v.69c0,1.48.06,2.08.06,2.27,0,.38-.29.59-.82.59s-.61-.15-.61-.6H9.72a18,18,0,0,1-1.6,2.67H13.9c.59-.66.68-.72.79-.72s.27,0,.92.61c.3.27.36.38.36.49s-.1.27-.53.54v1c0,1.94.07,2.81.07,3.1,0,.45-.3.66-.85.66s-.63-.15-.63-.59v-.39H4.25v.41c0,.52-.21.73-.8.73s-.65-.19-.65-.59.08-1,.08-3.14a25.34,25.34,0,0,0-.1-2.94,8.94,8.94,0,0,1,1.64.81Zm6.54.48H4.25V15.9H14ZM12.62,5.62H5.69V8.51h6.93Z"/><path class="cls-1" d="M4.47,29.15c0,4.31-.19,6.59-.87,8.37A9.11,9.11,0,0,1,.37,41.8c-.11.07-.34-.14-.25-.23a10.34,10.34,0,0,0,2.25-4.2A27.66,27.66,0,0,0,3,30.06a31.76,31.76,0,0,0-.15-4.37c2.11.23,2.36.3,2.36.55s-.12.3-.71.57ZM10,30.76c0,5.45.08,8,.08,8.72,0,.42-.33.63-.92.63s-.68-.15-.68-.57c0-.71.1-3,.1-9.1a34,34,0,0,0-.12-4.11c1.88.19,2.22.29,2.22.57s-.13.29-.68.5Zm5.78.34c0,6.78.11,9.16.11,10,0,.45-.29.66-.91.66s-.69-.15-.69-.55c0-.57.06-2.87.06-9.46,0-3.84,0-5.07-.11-6,1.92.19,2.26.28,2.26.55s-.14.32-.72.57Z"/><path class="cls-1" d="M1.62,53.83a14.53,14.53,0,0,0,1.64.11H10.1c.81-1,1-1.06,1.06-1.06s.27.07,1.14.79c.4.33.48.44.48.56s-.06.19-.25.19H3.3a8.11,8.11,0,0,0-1.49.11Zm14.54,3.7c0,5,.05,6.54.05,7.58a1.31,1.31,0,0,1-.58,1.2,2.25,2.25,0,0,1-1.32.36c-.28,0-.36-.08-.39-.32-.08-.59-.52-.88-2.38-1.2-.17,0-.13-.32,0-.32,1.37.11,2.09.17,2.85.17.23,0,.32-.12.32-.36V51.28H3.77a6.76,6.76,0,0,0-1.48.15l-.19-.72a12.14,12.14,0,0,0,1.65.1H14.52c.63-.67.73-.75.84-.75s.25.08.95.65c.3.25.38.34.38.46s-.06.21-.53.59Zm-7.07-.61c.59-.62.68-.7.8-.7s.26.08.91.59c.28.25.36.36.36.49s-.08.25-.51.53V59c0,2.19.06,3.27.06,3.57,0,.5-.29.67-.86.67-.42,0-.59-.15-.59-.55v-.8H4.47V63c0,.46-.32.63-.85.63S3,63.44,3,63.1s.06-1.12.06-3.33c0-1.59,0-2.51-.1-3.63a13.47,13.47,0,0,1,1.64.78Zm-4.62.48v4H9.26v-4Z"/><path class="cls-1" d="M1.93,90.49c0-.58.09-1.15.09-1.82C2,87.34,1.74,87,.52,86.6c-.11,0-.07-.27,0-.25.38.06.67.12.82.12a1,1,0,0,0,.89-.53c.72-1.24,2-3.44,3.32-6.18.06-.09.29,0,.25.1-.93,2.45-1.76,4.37-2.64,6.4A2.88,2.88,0,0,0,3,87.46c0,.83.67,1.8.67,2.69s-.4,1.26-.93,1.26S1.93,91.1,1.93,90.49Zm.32-8.85A5,5,0,0,0,.52,79.46c-.05,0,0-.19.1-.17,1.84.24,2.92,1.06,2.92,1.93a.79.79,0,0,1-.72.86C2.57,82.08,2.4,82,2.25,81.64ZM3.6,76.82A4.68,4.68,0,0,0,2,74.88c-.06,0,0-.19.09-.17,1.88.3,3,1.12,3,2a.76.76,0,0,1-.7.84C4,77.58,3.87,77.48,3.6,76.82Zm12,6c.78-.93.91-1,1-1s.31.12,1.08.78c.37.31.46.44.46.55s-.08.19-.25.19H11.27A24.86,24.86,0,0,1,10.06,86,21.4,21.4,0,0,1,8,89.13c2.24-.06,4.48-.21,6.72-.48a12.32,12.32,0,0,0-2.24-3c-.07,0,.1-.19.17-.15C15.26,86.81,17,88.75,17,90.19a.9.9,0,0,1-.85,1c-.34,0-.55-.27-.76-.89A9.76,9.76,0,0,0,14.9,89a51.8,51.8,0,0,1-8.49,1.52c-.17.46-.32.63-.51.63s-.27-.08-.69-2.09a10.45,10.45,0,0,0,1.07.06c.38,0,.76,0,1.14,0a18.83,18.83,0,0,0,1.33-3,18.64,18.64,0,0,0,.81-2.83h-3a6,6,0,0,0-1.14.12l-.21-.73a5.63,5.63,0,0,0,1.35.14h3.61V79H7.44a5.9,5.9,0,0,0-1.14.12l-.19-.72a7,7,0,0,0,1.33.13h2.75V77.12a20.46,20.46,0,0,0-.13-2.74c1.94.19,2.13.35,2.13.56s-.12.3-.59.49v3.06h3.09c.75-.93.88-1,1-1s.25.1,1.05.8c.38.29.47.42.47.53S17.16,79,17,79H11.6v3.9Z"/><path class="cls-1" d="M4.7,101a6.11,6.11,0,0,0-1.44.16l-.19-.78a8.41,8.41,0,0,0,1.59.15H8.25a16.94,16.94,0,0,0-.09-1.73c1.88.21,2.11.38,2.11.57s-.15.29-.67.49v.67h3.88c.57-.63.68-.7.8-.7s.22.07.85.55c.29.24.36.36.36.51s-.05.21-.51.51v1.18h.76c.66-.78.82-.87.93-.87s.27.09.95.64c.28.25.38.4.38.54s-.06.17-.25.17H15c0,1.19.06,1.78.06,1.95,0,.42-.33.63-.86.63s-.55-.13-.55-.49h-4v1.48h4.3c.68-.8.83-.9.95-.9s.28.1,1,.67c.33.28.42.42.42.53s-.06.17-.25.17H9.6v1.52h5.68c.78-.87.92-1,1-1s.3.08,1.08.71c.36.3.44.43.44.57s-.06.17-.25.17H2a8.84,8.84,0,0,0-1.27.11l-.19-.74A5.78,5.78,0,0,0,2,108.6H8.25v-1.52H3.37a6.75,6.75,0,0,0-1.19.12L2,106.46a6.21,6.21,0,0,0,1.36.15h4.9v-1.48H4.32a8.19,8.19,0,0,0-1.38.11l-.19-.72a9.44,9.44,0,0,0,1.55.13h4V103H2.18a9.65,9.65,0,0,0-1.45.11l-.19-.74a8.39,8.39,0,0,0,1.58.15H8.25V101Zm.15,14.69c0,.45-.26.64-.81.64s-.61-.15-.61-.53.06-1.08.06-3.3a23.2,23.2,0,0,0-.12-2.85,8.71,8.71,0,0,1,1.65.81h8.15c.57-.68.69-.74.8-.74s.25.06.88.57c.32.29.38.38.38.5s-.08.28-.52.53v1.1c0,2.09.06,3,.06,3.27s-.28.64-.85.64c-.42,0-.59-.15-.59-.51v-.53H4.85Zm8.48-4.75H4.85v1.65h8.48Zm0,2.13H4.85v1.75h8.48ZM9.6,102.56h4V101h-4Zm0,.48v1.61h4V103Z"/><path class="cls-1" d="M13.86,139.36c.93-1.14,1.06-1.23,1.21-1.23s.25.09,1.2.91c.44.36.53.49.53.61s-.07.19-.24.19H3.33a11,11,0,0,0-1.48.11l-.21-.72a11,11,0,0,0,1.64.13H8.22v-8H2.42a9,9,0,0,0-1.61.12l-.19-.72a13.31,13.31,0,0,0,1.82.13H8.22v-3.08a36.26,36.26,0,0,0-.1-3.91c2.05.21,2.3.38,2.3.59s-.15.32-.7.53v5.87h5.11c1-1.14,1.1-1.24,1.23-1.24s.25.1,1.22.9c.45.38.55.49.55.6s-.06.21-.25.21H9.72v8Z"/><path class="cls-1" d="M8.25,151H2.61a8.15,8.15,0,0,0-1.48.12l-.19-.73a9.76,9.76,0,0,0,1.62.14H8.25a15.63,15.63,0,0,0-.09-2.3c2,.28,2.07.32,2.07.61s-.09.24-.61.45v1.24h5.13c.84-.93,1-1,1.1-1s.27.1,1.09.8c.38.28.47.4.47.51s-.06.19-.25.19H9.62v1.52h3.67c.55-.62.66-.68.78-.68s.23.06.81.55c.27.23.35.36.35.47s0,.21-.48.48v.44c0,1.1,0,1.57,0,1.71,0,.38-.29.57-.82.57s-.53-.16-.53-.46v-.11H9.62v1.57h4c.55-.59.65-.64.76-.64s.25.05.85.51c.31.23.37.36.37.47s0,.19-.5.5v1.21h.63c.63-.81.76-.91.87-.91s.29.1,1,.72c.32.25.42.38.42.5s-.08.17-.25.17H15.13c0,1.69.08,2.47.08,2.72,0,.45-.31.62-.9.62-.39,0-.55-.15-.55-.49v-.7H9.64c0,1.27,0,1.91,0,2.5a1.51,1.51,0,0,1-.49,1.12,1.86,1.86,0,0,1-1.3.44c-.24,0-.28,0-.36-.44s-.47-.79-2.07-1.12c-.09,0-.09-.24,0-.24,1.1,0,1.86.11,2.51.11.21,0,.28-.11.28-.32v-2.05H3.77a6.5,6.5,0,0,0-1.39.15l-.19-.74a9.15,9.15,0,0,0,1.54.11H8.25v-1.67H2.1a11.19,11.19,0,0,0-1.46.11L.45,159A9,9,0,0,0,2,159.1H8.25v-1.57H3.9a6.66,6.66,0,0,0-1.46.13l-.19-.74a10.37,10.37,0,0,0,1.62.13H8.25v-1.57H4.49v.17c0,.38-.24.55-.76.55s-.61-.14-.61-.48.06-.68.06-2a14.29,14.29,0,0,0-.09-2,8.05,8.05,0,0,1,1.57.74H8.25Zm-3.76,2v2H8.25v-2Zm5.13,2h3.82v-2H9.62Zm0,4.1h4.14v-1.57H9.62Zm0,.48c0,.55,0,1.12,0,1.67h4.12v-1.67Z"/><path class="cls-1" d="M5.27,185.25c0,2.24.06,3,.06,3.57a1.33,1.33,0,0,1-.51,1,1.82,1.82,0,0,1-1.13.46c-.22,0-.28-.06-.34-.36-.07-.51-.34-.76-1.67-1.06-.11,0-.09-.27,0-.25a19.5,19.5,0,0,0,2,.09c.22,0,.32-.09.32-.43v-2.45c0-.86,0-1.9.08-3.33A12.05,12.05,0,0,1,.26,187c-.1.06-.25-.13-.17-.21a16,16,0,0,0,3.74-7H2a4.43,4.43,0,0,0-1.26.13l-.19-.74a9.69,9.69,0,0,0,1.49.13H6.92c.52-.57.61-.63.75-.63s.22.06.79.63c.27.27.36.38.36.51s-.19.27-.62.33c-.14,0-.23.09-.5.43a10.37,10.37,0,0,1-1.65,1.5c-.08.06-.25-.05-.19-.13a9.64,9.64,0,0,0,1.06-2.16H5.25Zm1-10.94c.64-.59.76-.67.87-.67s.25.08.9.72c.32.31.38.42.38.55s-.16.29-.69.35a17.74,17.74,0,0,1-2.51,2.05,1.44,1.44,0,0,1,.38.91.74.74,0,0,1-.68.78c-.32,0-.47-.14-.68-.67a5.74,5.74,0,0,0-1.77-2.28c-.06-.05,0-.19.09-.17A5.68,5.68,0,0,1,4.91,177a11.78,11.78,0,0,0,1.37-2.22H2.23a4.11,4.11,0,0,0-1.14.15l-.21-.78a5.31,5.31,0,0,0,1.31.16Zm8.85,9.34c.57-.61.67-.66.78-.66s.25,0,.84.55c.28.26.36.38.36.49s-.08.19-.52.5a28.8,28.8,0,0,1-.55,3.81,2.58,2.58,0,0,1-.81,1.47,2.63,2.63,0,0,1-1.33.42c-.21,0-.35-.08-.36-.27-.08-.61-.4-.8-1.75-1.22-.12,0-.1-.26,0-.24a13.55,13.55,0,0,0,2.18.22c.48,0,.69-.28.89-1.27a19.36,19.36,0,0,0,.4-3.32H12.11a7.84,7.84,0,0,1-1.27,3.21,8.08,8.08,0,0,1-4.66,3c-.13,0-.22-.21-.11-.27a7.86,7.86,0,0,0,3.51-2.9,7.74,7.74,0,0,0,1.16-3H8.88a6.45,6.45,0,0,0-1.33.13l-.19-.74a7.14,7.14,0,0,0,1.5.13h2a12.47,12.47,0,0,0,.13-2.2c1.86.28,2.05.34,2.05.59s-.09.28-.68.49c0,.4-.06.78-.11,1.12Zm1-7.62a11.1,11.1,0,0,1-2.43,3.46.38.38,0,0,0,.11.08A12.3,12.3,0,0,0,18.36,181c.1,0,.06.2,0,.21-.43.12-.66.38-.83,1,0,.19-.14.27-.27.27a3.59,3.59,0,0,1-.76-.21,11.16,11.16,0,0,1-3.21-1.77l-.34-.28a14.17,14.17,0,0,1-5.78,2.22c-.11,0-.19-.23-.07-.26a16,16,0,0,0,5.07-2.72,11.79,11.79,0,0,1-1.8-2.93,10.17,10.17,0,0,1-2.19,1.88c-.08.06-.23-.09-.17-.17a11.2,11.2,0,0,0,2.24-3.49,8.62,8.62,0,0,0,.51-1.75c1.66.53,1.92.66,1.92.85s-.23.37-.8.4a8.08,8.08,0,0,1-.83,1.41h4.6c.76-.95.91-1.05,1-1.05s.25.1,1,.8c.36.31.45.42.45.53s-.05.19-.24.19Zm-5.45,0-.08.1a9.14,9.14,0,0,0,2.15,2.68,11.51,11.51,0,0,0,1.9-2.78Z"/><path class="cls-1" d="M3.16,207.19a15.67,15.67,0,0,1-.55,3.5,10.42,10.42,0,0,1-2.37,4.22c-.08.09-.29-.08-.23-.17a13.08,13.08,0,0,0,1.52-4.37,31.85,31.85,0,0,0,.34-6.1c0-1.6,0-2.09-.09-3,.68.33,1,.48,1.61.86H6.58c.61-.63.71-.7.84-.7s.23.07.82.59c.28.26.36.38.36.49s-.1.25-.52.53v1.24c0,2.09.06,3,.06,3.4s-.27.59-.78.59-.61-.14-.61-.5v-.61ZM.88,199a9.11,9.11,0,0,0,1.49.13H7c.78-.91.93-1,1.05-1s.26.08,1.1.73c.36.32.45.43.45.55s0,.19-.24.19h-7a5.58,5.58,0,0,0-1.29.13Zm5.87,3.68H3.26v1.43c0,1,0,1.88-.08,2.66H6.75ZM15.21,209c0,2.45,0,4.52,0,5.17,0,.49-.22.68-.85.68s-.65-.17-.65-.55.08-1.62.08-4.24v-5.45H11.27a17.63,17.63,0,0,1-.85,5.34,9.94,9.94,0,0,1-4,5c-.11.07-.32-.14-.22-.23a11.11,11.11,0,0,0,3.13-5.07,24.44,24.44,0,0,0,.65-6.58,23.25,23.25,0,0,0-.14-3.11,9.26,9.26,0,0,1,1.62.76,15.13,15.13,0,0,0,3.47-1.88,5.43,5.43,0,0,0,1-.93c1.41,1.12,1.54,1.29,1.54,1.46s-.23.26-.93.11a19.77,19.77,0,0,1-5.19,1.71v1.45c0,.53,0,1,0,1.5h4.37c.78-1,.92-1.05,1-1.05s.27.1,1.12.78c.38.32.47.44.47.55s-.07.19-.26.19H15.21Z"/></g></g></svg>