<svg xmlns="http://www.w3.org/2000/svg" viewBox="0 0 600.77 49.21"><defs><style>.cls-1{fill:#231815;}</style></defs><g id="レイヤー_2" data-name="レイヤー 2"><g id="お客様用レイヤー"><path class="cls-1" d="M6.58,8.65c0,4.25-2,7.17-4.4,7.17A2.09,2.09,0,0,1,0,13.64a2.34,2.34,0,0,1,1.48-2.23C4.09,9.93,5.2,8.23,5.42,4.94c0-.32.69-.32.74,0a13.66,13.66,0,0,1,.37,2.39H21.08V4A24.25,24.25,0,0,0,20.81.05c5.52.59,6.16,1,6.16,1.6s-.43.9-1.86,1.54V7.33H40.4c1.54-1.91,1.91-2.13,2.28-2.13s.85.32,3.08,2.39C46.93,8.65,47,9,47,9.4c0,.74-.38,1-2.08,1a1.57,1.57,0,0,0-1.27.53,21.38,21.38,0,0,1-4,3.4c-.21.16-.59-.1-.48-.37A28.25,28.25,0,0,0,41,8.65Zm12,24a40.48,40.48,0,0,0,1.54-7.49H13.48v.37c0,1.38-.64,1.91-2.23,1.91-1.27,0-1.7-.42-1.7-1.64,0-.9.16-2.28.16-7.64a52.16,52.16,0,0,0-.21-6,38.08,38.08,0,0,1,4.62,2.29H32.44c1.64-1.75,1.91-1.91,2.23-1.91s.79.1,2.49,1.59c.8.69,1,1,1,1.33s-.27.69-1.44,1.49v1.91c0,4.14.16,5.83.16,6.36,0,1.07-.79,1.65-2.28,1.65-1.27,0-1.7-.42-1.7-1.7H24.74a51.38,51.38,0,0,1-4.46,7.49H36.42c1.64-1.86,1.91-2,2.23-2s.74.06,2.54,1.7c.85.74,1,1.06,1,1.38,0,.48-.26.74-1.48,1.49v2.86c0,5.42.21,7.86.21,8.66,0,1.27-.85,1.86-2.39,1.86-1.33,0-1.75-.43-1.75-1.65V45.82H9.45V47c0,1.44-.59,2-2.23,2-1.27,0-1.8-.53-1.8-1.64s.21-2.71.21-8.77a73.39,73.39,0,0,0-.27-8.22,26,26,0,0,1,4.57,2.28ZM36.79,34H9.45V44.49H36.79ZM32.86,15.77H13.48v8.07H32.86Z"/><path class="cls-1" d="M79.1,12.47c0,12-.53,18.43-2.44,23.42a25.54,25.54,0,0,1-9,11.94c-.32.22-.95-.37-.69-.63A28.82,28.82,0,0,0,73.2,35.46c1.23-4.67,1.7-9.34,1.7-20.44,0-7.22-.05-9.5-.42-12.21,5.89.64,6.58.85,6.58,1.54,0,.48-.31.85-2,1.6ZM94.65,17c0,15.24.22,22.24.22,24.36,0,1.17-.91,1.76-2.55,1.76-1.38,0-1.91-.43-1.91-1.6,0-2,.26-8.49.26-25.42,0-7.12,0-9.14-.32-11.47,5.26.53,6.21.8,6.21,1.59,0,.43-.37.8-1.91,1.38Zm16.14,1c0,19,.32,25.59.32,27.82,0,1.28-.8,1.86-2.55,1.86-1.43,0-1.91-.42-1.91-1.54,0-1.59.16-8,.16-26.44,0-10.72,0-14.17-.32-16.88,5.36.53,6.32.8,6.32,1.54s-.37.9-2,1.59Z"/><path class="cls-1" d="M140.14,12.42a37.31,37.31,0,0,0,4.57.32h19.11c2.28-2.76,2.65-3,3-3S167.54,10,170,12c1.11.9,1.33,1.22,1.33,1.54s-.16.53-.69.53h-25.8a23.57,23.57,0,0,0-4.15.32Zm40.62,10.35c0,14,.15,18.26.15,21.19a3.64,3.64,0,0,1-1.64,3.34,6.23,6.23,0,0,1-3.66,1c-.8,0-1-.21-1.12-.9-.21-1.65-1.43-2.44-6.64-3.35-.47-.1-.37-.9,0-.9,3.83.32,5.85.48,8,.48.64,0,.9-.32.9-1V5.31H146.15a18.86,18.86,0,0,0-4.15.42l-.53-2a36.16,36.16,0,0,0,4.62.26h30.1c1.75-1.86,2-2.07,2.34-2.07s.69.21,2.65,1.81c.85.69,1.06.95,1.06,1.27s-.16.58-1.48,1.65ZM161,21.08c1.64-1.76,1.91-2,2.23-2s.74.21,2.54,1.65c.8.69,1,1,1,1.38s-.21.69-1.43,1.48v3.24c0,6.11.16,9.13.16,10,0,1.38-.8,1.86-2.39,1.86-1.17,0-1.64-.43-1.64-1.54V34.93H148.11V38c0,1.27-.9,1.75-2.39,1.75-1.22,0-1.65-.48-1.65-1.43s.16-3.13.16-9.29c0-4.46,0-7-.26-10.14a33.3,33.3,0,0,1,4.56,2.18Zm-12.9,1.32V33.61h13.38V22.4Z"/><path class="cls-1" d="M210,45.87c0-1.65.26-3.24.26-5.1,0-3.72-.79-4.67-4.19-5.79-.32-.1-.21-.74.11-.68,1.06.15,1.85.31,2.28.31A2.6,2.6,0,0,0,211,33.13c2-3.45,5.47-9.61,9.29-17.26.16-.26.8,0,.69.27C218.34,23,216,28.35,213.56,34a7.93,7.93,0,0,0-.64,3.34c0,2.34,1.86,5.05,1.86,7.54,0,2.18-1.11,3.51-2.6,3.51S210,47.57,210,45.87Zm.9-24.74A14.35,14.35,0,0,0,206.08,15c-.16-.1,0-.53.26-.48,5.15.7,8.18,3,8.18,5.42a2.22,2.22,0,0,1-2,2.39C211.81,22.35,211.33,22,210.91,21.13Zm3.77-13.49a13.2,13.2,0,0,0-4.62-5.41c-.16-.11.05-.53.26-.48,5.26.85,8.34,3.14,8.34,5.68a2.13,2.13,0,0,1-2,2.34C215.74,9.77,215.42,9.5,214.68,7.64Zm33.55,16.88c2.18-2.6,2.55-2.91,2.87-2.91s.85.31,3,2.17c1,.85,1.27,1.22,1.27,1.54s-.21.53-.69.53H236.13a77.19,77.19,0,0,1-3.4,7.33A60.47,60.47,0,0,1,226.94,42c6.27-.16,12.53-.58,18.8-1.32a34.08,34.08,0,0,0-6.27-8.49c-.21-.16.26-.54.48-.43,7.33,3.77,12.1,9.18,12.1,13.22a2.52,2.52,0,0,1-2.39,2.76c-.95-.05-1.53-.74-2.12-2.5a28.9,28.9,0,0,0-1.27-3.5A147.54,147.54,0,0,1,222.54,46c-.48,1.27-.91,1.75-1.44,1.75s-.74-.21-1.91-5.84c1.28.1,1.86.16,3,.16s2.13,0,3.19-.06a53,53,0,0,0,3.71-8.28,51,51,0,0,0,2.29-7.91H223a17.65,17.65,0,0,0-3.18.32l-.58-2a16.24,16.24,0,0,0,3.76.37H233.1V13.64h-7.7a17.65,17.65,0,0,0-3.18.32l-.53-2a18.28,18.28,0,0,0,3.71.37h7.7V8.49a53.52,53.52,0,0,0-.37-7.64c5.41.53,5.94,1,5.94,1.54,0,.42-.32.85-1.64,1.38v8.54h8.65c2.07-2.6,2.45-2.86,2.82-2.86s.69.26,2.92,2.23c1.06.79,1.32,1.16,1.32,1.48s-.16.48-.69.48H237V24.52Z"/><path class="cls-1" d="M286.77,6.16a17.91,17.91,0,0,0-4,.42l-.53-2.17a22.81,22.81,0,0,0,4.46.42h10c-.05-1.91-.1-3.4-.26-4.83,5.26.58,5.89,1.06,5.89,1.59s-.42.8-1.85,1.38V4.83h10.82c1.6-1.75,1.91-2,2.23-2s.64.21,2.39,1.54c.8.69,1,1,1,1.43s-.16.58-1.43,1.43v3.29h2.12c1.86-2.17,2.28-2.44,2.6-2.44s.74.27,2.65,1.81c.8.69,1.07,1.11,1.07,1.48s-.16.48-.69.48h-7.75c.05,3.35.16,5,.16,5.47,0,1.17-.9,1.75-2.39,1.75-1.12,0-1.54-.37-1.54-1.38H300.47v4.14h12c1.91-2.23,2.34-2.49,2.66-2.49s.79.26,2.86,1.86c.9.79,1.17,1.16,1.17,1.48s-.16.48-.69.48h-18v4.24h15.87c2.17-2.44,2.54-2.7,2.86-2.7s.85.21,3,2c1,.85,1.22,1.22,1.22,1.59s-.16.48-.69.48H279.28a23,23,0,0,0-3.56.32L275.19,27a16,16,0,0,0,4,.42h17.46V23.2H283.05a19.39,19.39,0,0,0-3.35.32l-.53-2.07a16.78,16.78,0,0,0,3.83.42h13.69V17.73h-11a24.66,24.66,0,0,0-3.88.32l-.53-2a24.89,24.89,0,0,0,4.35.37h11V11.89h-17a28.94,28.94,0,0,0-4,.32l-.53-2.07a22.26,22.26,0,0,0,4.41.42h17.14V6.16Zm.42,41c0,1.27-.74,1.8-2.28,1.8-1.28,0-1.7-.42-1.7-1.49,0-.79.16-3,.16-9.24a67.22,67.22,0,0,0-.32-8,24.54,24.54,0,0,1,4.62,2.29h22.77c1.6-1.91,1.92-2.07,2.23-2.07s.69.16,2.45,1.59c.9.8,1.06,1.06,1.06,1.38,0,.48-.21.8-1.43,1.48v3.08c0,5.84.15,8.34.15,9.14,0,1.16-.79,1.8-2.39,1.8-1.16,0-1.64-.42-1.64-1.43V46.08H287.19Zm23.68-13.28H287.19v4.62h23.68Zm0,5.95H287.19v4.88h23.68Zm-10.4-29.31h11.25V6.16H300.47Zm0,1.33V16.4h11.25V11.89Z"/><path class="cls-1" d="M381.37,44.38c2.6-3.19,3-3.45,3.4-3.45s.69.26,3.34,2.55c1.22,1,1.49,1.38,1.49,1.7s-.21.53-.69.53H352a28.52,28.52,0,0,0-4.14.32l-.59-2a28.23,28.23,0,0,0,4.57.37h13.8V22.08H349.41a27.12,27.12,0,0,0-4.51.32l-.53-2a36.09,36.09,0,0,0,5.09.37H365.6V12.15a104.93,104.93,0,0,0-.27-10.93c5.74.59,6.43,1.06,6.43,1.65s-.43.9-2,1.48V20.76h14.28c2.71-3.19,3.09-3.45,3.46-3.45s.69.26,3.39,2.49c1.28,1.06,1.54,1.38,1.54,1.7s-.16.58-.69.58h-22v22.3Z"/><path class="cls-1" d="M434.72,7.86H419a24.36,24.36,0,0,0-4.14.31l-.53-2a29.27,29.27,0,0,0,4.52.37h15.92a45.1,45.1,0,0,0-.26-6.42c5.46.79,5.78.9,5.78,1.7,0,.42-.27.69-1.7,1.27V6.53h14.33c2.34-2.6,2.76-2.87,3.08-2.87s.75.27,3,2.23c1.06.8,1.33,1.12,1.33,1.44s-.16.53-.69.53H438.54V12.1h10.25c1.54-1.75,1.86-1.91,2.17-1.91s.64.16,2.29,1.54c.74.64.95,1,.95,1.33s-.1.58-1.33,1.33v1.22c0,3.08.11,4.4.11,4.78,0,1.06-.8,1.59-2.28,1.59-1.06,0-1.49-.43-1.49-1.28v-.31H438.54v4.4H449.8c1.54-1.64,1.8-1.8,2.12-1.8s.69.16,2.39,1.43c.85.64,1,1,1,1.33s-.11.53-1.38,1.38v3.4h1.75c1.75-2.29,2.12-2.55,2.44-2.55s.8.26,2.82,2c.9.7,1.16,1.07,1.16,1.39s-.21.47-.69.47h-7.48c.05,4.73.21,6.9.21,7.59,0,1.28-.85,1.75-2.5,1.75-1.11,0-1.53-.42-1.53-1.38v-2H438.59c.06,3.56.11,5.36.11,7A4.24,4.24,0,0,1,437.32,48a5.19,5.19,0,0,1-3.61,1.22c-.69,0-.79-.1-1-1.22-.21-1.43-1.32-2.23-5.79-3.13-.26,0-.26-.69,0-.69,3.09.16,5.21.32,7,.32.59,0,.8-.32.8-.91V37.85H422.19a19.19,19.19,0,0,0-3.87.42l-.53-2.06a24.61,24.61,0,0,0,4.3.31h12.63V31.85h-17.2a29.06,29.06,0,0,0-4.09.32l-.53-2a26.59,26.59,0,0,0,4.46.38h17.36V26.12H422.56a17.91,17.91,0,0,0-4.08.37L418,24.42a27.67,27.67,0,0,0,4.51.37h12.26v-4.4H424.21v.47c0,1.06-.69,1.54-2.12,1.54-1.12,0-1.7-.37-1.7-1.32,0-.59.16-1.91.16-5.58a37.12,37.12,0,0,0-.27-5.47,23,23,0,0,1,4.41,2.07h10Zm-10.51,5.57v5.63h10.51V13.43Zm14.33,5.63h10.67V13.43H438.54Zm0,11.47h11.58V26.12H438.54Zm0,1.32c0,1.54,0,3.13,0,4.67h11.53V31.85Z"/><path class="cls-1" d="M495.39,34.56c0,6.26.16,8.28.16,10a3.73,3.73,0,0,1-1.43,2.92A5.12,5.12,0,0,1,491,48.73c-.64,0-.8-.15-1-1-.21-1.44-.95-2.13-4.67-3-.32,0-.26-.74.05-.69a50.66,50.66,0,0,0,5.52.27c.64,0,.91-.27.91-1.22V36.26c0-2.39.05-5.31.21-9.29a33.79,33.79,0,0,1-10.67,12.58c-.27.16-.69-.37-.48-.59a44.42,44.42,0,0,0,10.46-19.64h-5.25a12.86,12.86,0,0,0-3.51.38l-.53-2.07a26,26,0,0,0,4.14.37H500c1.44-1.6,1.7-1.76,2.07-1.76s.64.16,2.23,1.76c.75.74,1,1.06,1,1.43s-.53.74-1.75.9c-.37.11-.64.27-1.38,1.22a30.1,30.1,0,0,1-4.62,4.2c-.21.15-.69-.16-.53-.38a27.45,27.45,0,0,0,3-6.05h-4.67ZM498.21,4c1.8-1.64,2.12-1.86,2.44-1.86s.69.22,2.5,2c.9.85,1.06,1.17,1.06,1.54s-.43.8-1.91,1a51,51,0,0,1-7,5.73,4.09,4.09,0,0,1,1.06,2.55,2.08,2.08,0,0,1-1.91,2.18c-.91,0-1.33-.38-1.91-1.86a16,16,0,0,0-4.94-6.38c-.16-.15.05-.53.27-.47a15.51,15.51,0,0,1,6.52,3.13,33.58,33.58,0,0,0,3.83-6.21H486.9a11.33,11.33,0,0,0-3.19.42l-.58-2.17A15.49,15.49,0,0,0,486.8,4ZM522.94,30.1c1.6-1.7,1.86-1.86,2.18-1.86s.69.16,2.34,1.54c.8.75,1,1.06,1,1.38s-.21.53-1.43,1.38a85.05,85.05,0,0,1-1.55,10.67,7.14,7.14,0,0,1-2.28,4.09,7,7,0,0,1-3.71,1.17c-.59,0-1-.21-1-.74-.22-1.7-1.12-2.23-4.89-3.4-.31-.11-.26-.75.06-.69a38.18,38.18,0,0,0,6.1.64c1.33,0,1.91-.8,2.49-3.56a54.91,54.91,0,0,0,1.12-9.29h-8.86a21.89,21.89,0,0,1-3.56,9c-2.66,3.72-6.37,6.32-13,8.33-.37.11-.64-.58-.32-.74,5.31-2.6,7.81-5,9.82-8.12a21.47,21.47,0,0,0,3.24-8.44h-5.2a16.62,16.62,0,0,0-3.71.37l-.54-2.07a19.22,19.22,0,0,0,4.2.37h5.46a34.35,34.35,0,0,0,.38-6.16c5.2.8,5.73,1,5.73,1.65,0,.47-.26.79-1.91,1.38a26.46,26.46,0,0,1-.32,3.13Zm2.71-21.29a31,31,0,0,1-6.79,9.67,1,1,0,0,0,.32.21A34.83,34.83,0,0,0,532,22.56c.27.05.16.53-.1.59-1.22.31-1.86,1.06-2.34,2.65-.11.53-.37.74-.74.74a9.4,9.4,0,0,1-2.13-.58,31.79,31.79,0,0,1-9-4.94l-1-.79c-4,3-9.19,4.83-16.14,6.21-.32,0-.53-.64-.21-.75,6.15-2.23,10.72-4.61,14.17-7.59a33.63,33.63,0,0,1-5-8.17,28.42,28.42,0,0,1-6.1,5.25c-.21.16-.64-.26-.48-.48a31.39,31.39,0,0,0,6.26-9.76A24.77,24.77,0,0,0,510.63.05C515.25,1.54,516,1.91,516,2.44s-.63,1-2.23,1.12a24.2,24.2,0,0,1-2.33,3.93h12.84c2.13-2.66,2.55-2.92,2.92-2.92s.69.26,2.87,2.23c1,.84,1.27,1.16,1.27,1.48s-.15.53-.68.53Zm-15.23,0-.22.27a25.71,25.71,0,0,0,6,7.48,32.26,32.26,0,0,0,5.3-7.75Z"/><path class="cls-1" d="M558.52,26.86A46.14,46.14,0,0,1,557,36.63a29.13,29.13,0,0,1-6.64,11.79c-.21.26-.8-.22-.64-.48A36.71,36.71,0,0,0,554,35.73c.74-3.82.95-8.07.95-17a81.2,81.2,0,0,0-.26-8.29c1.91.91,2.65,1.33,4.51,2.39h8.92c1.7-1.75,2-2,2.34-2s.63.21,2.28,1.64c.8.75,1,1.07,1,1.38s-.27.69-1.43,1.49v3.45c0,5.84.15,8.44.15,9.5s-.74,1.65-2.17,1.65c-1.23,0-1.7-.37-1.7-1.38v-1.7Zm-6.38-23a23.57,23.57,0,0,0,4.14.38h13c2.17-2.55,2.6-2.77,2.92-2.77s.74.22,3.08,2c1,.9,1.27,1.22,1.27,1.54s-.16.53-.69.53H556.34a14.8,14.8,0,0,0-3.61.37Zm16.41,10.3h-9.77v4c0,2.82,0,5.26-.21,7.43h10Zm23.62,17.73c0,6.85.16,12.64.16,14.44,0,1.38-.64,1.91-2.39,1.91-1.32,0-1.8-.47-1.8-1.53s.21-4.52.21-11.84V19.59h-7.17c-.26,6.53-1,11.1-2.39,14.92-1.91,5.57-5.2,9.5-11.31,14-.31.21-.9-.37-.63-.64,4.67-4.83,7.33-8.81,8.76-14.17,1.22-4.41,1.8-9.82,1.8-18.37A68.52,68.52,0,0,0,577,6.58a29.71,29.71,0,0,1,4.51,2.13,41.39,41.39,0,0,0,9.72-5.26,14.88,14.88,0,0,0,2.81-2.6c3.93,3.13,4.3,3.61,4.3,4.09s-.63.74-2.6.32A55.41,55.41,0,0,1,581.29,10v4c0,1.48,0,2.87-.06,4.19h12.21c2.18-2.65,2.55-2.92,2.87-2.92s.74.27,3.14,2.18c1.06.9,1.32,1.22,1.32,1.54s-.21.53-.74.53h-7.86Z"/></g></g></svg>