<svg xmlns="http://www.w3.org/2000/svg" viewBox="0 0 719.58 81.37"><defs><style>.cls-1{fill:#231815;}</style></defs><g id="レイヤー_2" data-name="レイヤー 2"><g id="お客様用レイヤー"><path class="cls-1" d="M125.39,24.73c0,4.25-2,7.17-4.4,7.17a2.1,2.1,0,0,1-2.18-2.18,2.35,2.35,0,0,1,1.49-2.23C122.9,26,124,24.3,124.23,21c0-.31.69-.31.74,0a13.8,13.8,0,0,1,.37,2.39h14.55V20.06a24.25,24.25,0,0,0-.27-3.93c5.53.59,6.16,1,6.16,1.59s-.42.91-1.85,1.54V23.4h15.28c1.54-1.91,1.91-2.12,2.29-2.12s.85.32,3.07,2.39c1.17,1.06,1.28,1.43,1.28,1.8,0,.75-.37,1-2.07,1a1.59,1.59,0,0,0-1.28.53,21.06,21.06,0,0,1-4,3.4.32.32,0,0,1-.47-.37,28.49,28.49,0,0,0,1.75-5.31Zm12,24a40.48,40.48,0,0,0,1.54-7.49H132.3v.37c0,1.38-.64,1.91-2.23,1.91-1.28,0-1.7-.42-1.7-1.64,0-.91.16-2.29.16-7.65a52.07,52.07,0,0,0-.21-6,38.08,38.08,0,0,1,4.62,2.29h18.31c1.64-1.75,1.91-1.91,2.23-1.91s.79.1,2.49,1.59c.8.69,1,1,1,1.33s-.26.69-1.43,1.48v1.91c0,4.14.16,5.84.16,6.37,0,1.07-.8,1.65-2.29,1.65-1.27,0-1.7-.43-1.7-1.7h-8.12a50.51,50.51,0,0,1-4.46,7.49h16.14c1.65-1.86,1.91-2,2.23-2s.75,0,2.55,1.7c.85.74,1,1.06,1,1.38s-.27.74-1.49,1.48v2.87c0,5.42.22,7.86.22,8.65,0,1.28-.85,1.86-2.39,1.86-1.33,0-1.76-.42-1.76-1.64V61.89H128.26v1.17c0,1.43-.58,2-2.23,2-1.27,0-1.8-.53-1.8-1.65s.21-2.71.21-8.76a73.58,73.58,0,0,0-.27-8.23,25.68,25.68,0,0,1,4.57,2.29Zm18.26,1.32H128.26V60.57H155.6Zm-3.93-18.2H132.3v8.06h19.37Z"/><path class="cls-1" d="M197.91,28.55c0,12.05-.53,18.43-2.44,23.41a25.49,25.49,0,0,1-9,11.95c-.32.21-1-.37-.69-.64A28.73,28.73,0,0,0,192,51.54c1.22-4.67,1.7-9.34,1.7-20.44,0-7.22-.05-9.5-.43-12.21,5.9.64,6.59.85,6.59,1.54,0,.48-.32.85-2,1.59Zm15.56,4.52c0,15.23.21,22.24.21,24.36,0,1.17-.9,1.76-2.55,1.76-1.38,0-1.91-.43-1.91-1.6,0-2,.27-8.49.27-25.43a100.63,100.63,0,0,0-.32-11.46c5.25.53,6.21.79,6.21,1.59,0,.42-.37.79-1.91,1.38Zm16.14,1c0,18.95.32,25.59.32,27.82,0,1.27-.8,1.86-2.55,1.86-1.44,0-1.92-.43-1.92-1.54,0-1.59.16-8,.16-26.44,0-10.73,0-14.18-.32-16.88,5.37.53,6.33.79,6.33,1.54,0,.58-.38.9-2,1.59Z"/><path class="cls-1" d="M259,28.5a37.15,37.15,0,0,0,4.56.32h19.12c2.28-2.76,2.65-3,3-3s.74.22,3.18,2.24c1.12.9,1.33,1.22,1.33,1.54s-.16.53-.69.53h-25.8a23.46,23.46,0,0,0-4.14.32Zm40.61,10.35c0,14,.16,18.26.16,21.19a3.67,3.67,0,0,1-1.64,3.34,6.31,6.31,0,0,1-3.67,1c-.8,0-1-.22-1.12-.91-.21-1.64-1.43-2.44-6.63-3.34-.48-.1-.37-.9,0-.9,3.82.32,5.84.48,8,.48.64,0,.91-.32.91-1V21.39H265a18.19,18.19,0,0,0-4.14.42l-.53-2a34.28,34.28,0,0,0,4.61.27H295c1.76-1.86,2-2.07,2.34-2.07s.69.21,2.66,1.8c.85.69,1.06,1,1.06,1.28s-.16.58-1.49,1.64Zm-19.75-1.7c1.65-1.75,1.91-2,2.23-2s.75.21,2.55,1.64c.8.69,1,1,1,1.38s-.21.69-1.43,1.49v3.24c0,6.1.16,9.13.16,10,0,1.38-.8,1.86-2.39,1.86-1.17,0-1.65-.43-1.65-1.54V51H266.92v3.08c0,1.27-.9,1.75-2.39,1.75-1.22,0-1.64-.48-1.64-1.44s.16-3.13.16-9.28c0-4.46-.06-7-.27-10.14a34.13,34.13,0,0,1,4.57,2.17Zm-12.9,1.33v11.2H280.3V38.48Z"/><path class="cls-1" d="M328.82,62c0-1.65.27-3.24.27-5.1,0-3.72-.8-4.67-4.2-5.79-.32-.11-.21-.74.11-.69,1.06.16,1.86.32,2.28.32a2.62,2.62,0,0,0,2.5-1.49c2-3.45,5.46-9.61,9.29-17.25.16-.26.79-.05.69.27-2.61,6.84-4.94,12.21-7.38,17.89a7.93,7.93,0,0,0-.64,3.34c0,2.34,1.86,5,1.86,7.54,0,2.18-1.12,3.5-2.6,3.5S328.82,63.64,328.82,62Zm.91-24.75a14.21,14.21,0,0,0-4.84-6.1c-.16-.1.05-.53.27-.48,5.15.69,8.17,3,8.17,5.42a2.22,2.22,0,0,1-2,2.39C330.63,38.43,330.15,38.11,329.73,37.2Zm3.76-13.48a13.1,13.1,0,0,0-4.61-5.41c-.16-.11.05-.53.26-.48,5.26.85,8.33,3.13,8.33,5.68a2.13,2.13,0,0,1-2,2.33C334.55,25.84,334.24,25.58,333.49,23.72ZM367,40.6c2.18-2.6,2.55-2.92,2.87-2.92s.85.32,3,2.18c1,.85,1.27,1.22,1.27,1.54s-.21.53-.69.53H354.94a74.78,74.78,0,0,1-3.4,7.33,60.94,60.94,0,0,1-5.78,8.86c6.26-.16,12.53-.58,18.79-1.32a33.67,33.67,0,0,0-6.26-8.5c-.22-.16.26-.53.47-.42,7.33,3.76,12.11,9.18,12.11,13.22a2.52,2.52,0,0,1-2.39,2.76c-1-.06-1.54-.75-2.13-2.5a28.9,28.9,0,0,0-1.27-3.5,146,146,0,0,1-23.73,4.24c-.48,1.28-.9,1.76-1.43,1.76s-.75-.22-1.92-5.84c1.28.1,1.86.16,3,.16s2.12,0,3.19-.06a53,53,0,0,0,3.71-8.28,52.13,52.13,0,0,0,2.28-7.91h-8.33a17.76,17.76,0,0,0-3.19.32l-.58-2a16.32,16.32,0,0,0,3.77.37h10.08V29.72h-7.69A17.76,17.76,0,0,0,341,30l-.53-2a18.45,18.45,0,0,0,3.72.37h7.69V24.57a53.43,53.43,0,0,0-.37-7.64c5.42.53,5.95.95,5.95,1.54,0,.42-.32.85-1.65,1.38v8.54h8.65c2.07-2.6,2.45-2.87,2.82-2.87s.69.27,2.92,2.24c1.06.79,1.33,1.16,1.33,1.48s-.16.48-.69.48h-15V40.6Z"/><path class="cls-1" d="M405.58,22.23a17.85,17.85,0,0,0-4,.43L401,20.48a22.7,22.7,0,0,0,4.45.43h10c-.05-1.91-.11-3.4-.27-4.83,5.26.58,5.89,1.06,5.89,1.59s-.42.8-1.85,1.38v1.86h10.83c1.59-1.75,1.91-2,2.23-2s.63.22,2.38,1.54c.8.69,1,1,1,1.44s-.16.58-1.43,1.43v3.29h2.12c1.86-2.18,2.29-2.44,2.61-2.44s.74.26,2.65,1.8c.8.69,1.06,1.12,1.06,1.49s-.16.48-.69.48H434.3c.05,3.34.16,5,.16,5.47,0,1.16-.9,1.75-2.39,1.75-1.11,0-1.54-.37-1.54-1.38H419.28V38h12c1.91-2.23,2.34-2.5,2.66-2.5s.79.27,2.87,1.86c.9.8,1.17,1.17,1.17,1.49s-.16.47-.7.47h-18v4.25h15.87c2.18-2.44,2.55-2.71,2.87-2.71s.85.22,3,2c1,.85,1.23,1.22,1.23,1.59s-.16.48-.69.48H398.1a22.87,22.87,0,0,0-3.56.32L394,43.1a15.84,15.84,0,0,0,4,.42h17.47V39.27H401.86a20.42,20.42,0,0,0-3.34.32L398,37.52a16.74,16.74,0,0,0,3.82.43h13.7V33.81h-11a23.52,23.52,0,0,0-3.88.32l-.53-2a25,25,0,0,0,4.35.37h11.05V28h-17a28.82,28.82,0,0,0-4,.32L394,26.22a23.18,23.18,0,0,0,4.41.42h17.15V22.23Zm.42,41c0,1.28-.74,1.81-2.28,1.81-1.27,0-1.7-.43-1.7-1.49,0-.8.16-3,.16-9.24a67.13,67.13,0,0,0-.32-8,25.11,25.11,0,0,1,4.62,2.28h22.78c1.59-1.91,1.91-2.07,2.23-2.07s.69.16,2.44,1.6c.9.79,1.06,1.06,1.06,1.38s-.21.79-1.43,1.48v3.08c0,5.84.16,8.34.16,9.13,0,1.17-.8,1.81-2.39,1.81-1.17,0-1.65-.43-1.65-1.44V62.16H406ZM429.68,50H406v4.62h23.68Zm0,6H406v4.88h23.68Zm-10.4-29.31h11.25V22.23H419.28Zm0,1.33v4.51h11.25V28Z"/><path class="cls-1" d="M500.18,60.46c2.6-3.19,3-3.45,3.4-3.45s.69.26,3.34,2.55c1.22,1,1.49,1.38,1.49,1.7s-.21.53-.69.53h-37a28.58,28.58,0,0,0-4.14.31l-.58-2a29.38,29.38,0,0,0,4.56.37h13.81V38.16h-16.2a26.09,26.09,0,0,0-4.51.32l-.53-2a34.78,34.78,0,0,0,5.1.37h16.14v-8.6a104.93,104.93,0,0,0-.27-10.93c5.73.58,6.42,1.06,6.42,1.64s-.42.91-2,1.49v16.4h14.28c2.71-3.18,3.08-3.45,3.45-3.45s.69.27,3.4,2.5c1.27,1.06,1.54,1.38,1.54,1.7s-.16.58-.69.58h-22v22.3Z"/><path class="cls-1" d="M553.53,23.93H537.77a24.38,24.38,0,0,0-4.14.32l-.53-2a28.06,28.06,0,0,0,4.51.38h15.92a45.1,45.1,0,0,0-.26-6.42c5.47.79,5.79.9,5.79,1.69,0,.43-.27.69-1.7,1.28v3.45h14.33c2.34-2.6,2.76-2.87,3.08-2.87s.74.27,3,2.23c1.07.8,1.33,1.11,1.33,1.43s-.16.53-.69.53H557.36v4.25H567.6c1.54-1.75,1.86-1.91,2.18-1.91s.64.16,2.28,1.54c.75.64,1,1,1,1.33s-.11.58-1.33,1.33v1.22c0,3.07.11,4.4.11,4.77,0,1.06-.8,1.59-2.29,1.59-1.06,0-1.48-.42-1.48-1.27v-.32H557.36v4.41h11.25c1.54-1.65,1.81-1.81,2.13-1.81s.69.16,2.38,1.44c.85.63,1,1,1,1.32s-.1.54-1.38,1.39V46.6h1.75c1.76-2.28,2.13-2.54,2.45-2.54s.79.26,2.81,2c.9.69,1.17,1.06,1.17,1.38s-.22.48-.69.48h-7.49c.06,4.72.22,6.9.22,7.59,0,1.28-.85,1.75-2.5,1.75-1.12,0-1.54-.42-1.54-1.38v-2H557.41c.05,3.56.11,5.36.11,7a4.24,4.24,0,0,1-1.38,3.13,5.26,5.26,0,0,1-3.62,1.22c-.69,0-.79-.11-1-1.22-.21-1.43-1.32-2.23-5.78-3.13-.26-.06-.26-.69,0-.69,3.08.16,5.2.32,7,.32.58,0,.79-.32.79-.91V53.93H541a19.21,19.21,0,0,0-3.88.42l-.53-2.07a23.71,23.71,0,0,0,4.3.32h12.63V47.93h-17.2a28.92,28.92,0,0,0-4.08.32l-.53-2a26.42,26.42,0,0,0,4.45.37h17.36V42.2H541.38a18,18,0,0,0-4.09.37l-.53-2.07a27.67,27.67,0,0,0,4.51.37h12.26V36.46H543v.48c0,1.06-.69,1.54-2.12,1.54-1.12,0-1.7-.37-1.7-1.33,0-.58.16-1.91.16-5.57a37.12,37.12,0,0,0-.27-5.47,21.93,21.93,0,0,1,4.41,2.07h10ZM543,29.51v5.63h10.51V29.51Zm14.34,5.63H568V29.51H557.36Zm0,11.46h11.57V42.2H557.36Zm0,1.33c0,1.54,0,3.13,0,4.67h11.52V47.93Z"/><path class="cls-1" d="M614.21,50.64c0,6.26.16,8.28.16,10a3.73,3.73,0,0,1-1.43,2.92,5.12,5.12,0,0,1-3.14,1.27c-.63,0-.79-.16-.95-1-.22-1.43-1-2.12-4.68-3-.32,0-.26-.74.06-.69a50.56,50.56,0,0,0,5.52.27c.64,0,.9-.27.9-1.22V52.33c0-2.38.06-5.3.22-9.28a33.81,33.81,0,0,1-10.68,12.58c-.26.16-.69-.37-.47-.59A44.52,44.52,0,0,0,610.18,35.4h-5.26a12.9,12.9,0,0,0-3.51.37l-.53-2.07a24.85,24.85,0,0,0,4.14.37h13.81c1.43-1.59,1.69-1.75,2.07-1.75s.63.16,2.23,1.75c.74.75,1,1.07,1,1.44s-.53.74-1.76.9c-.37.11-.63.26-1.38,1.22a30.6,30.6,0,0,1-4.62,4.19c-.21.16-.69-.15-.53-.37a27.93,27.93,0,0,0,3-6.05h-4.67ZM617,20.06c1.81-1.65,2.12-1.86,2.44-1.86s.69.21,2.5,2c.9.85,1.06,1.17,1.06,1.54s-.42.79-1.91.95a50.41,50.41,0,0,1-7,5.74A4.09,4.09,0,0,1,615.16,31a2.07,2.07,0,0,1-1.91,2.17c-.9,0-1.32-.37-1.91-1.86a15.89,15.89,0,0,0-4.94-6.37c-.16-.16.06-.53.27-.48a15.62,15.62,0,0,1,6.53,3.14A33.52,33.52,0,0,0,617,21.39H605.71a10.87,10.87,0,0,0-3.18.42l-.59-2.18a15.53,15.53,0,0,0,3.67.43Zm24.74,26.12c1.59-1.7,1.86-1.86,2.18-1.86s.69.16,2.33,1.54c.8.74,1,1.06,1,1.38s-.21.53-1.43,1.38a86,86,0,0,1-1.54,10.67A7.17,7.17,0,0,1,642,63.38a7.16,7.16,0,0,1-3.72,1.17c-.58,0-.95-.22-1-.75-.21-1.7-1.11-2.23-4.88-3.39-.32-.11-.27-.75.05-.69a39.07,39.07,0,0,0,6.11.63c1.32,0,1.91-.79,2.49-3.55a57.2,57.2,0,0,0,1.12-9.29h-8.87a21.89,21.89,0,0,1-3.56,9c-2.65,3.71-6.37,6.31-13,8.33-.38.11-.64-.58-.32-.74,5.31-2.6,7.8-5,9.82-8.12a21.63,21.63,0,0,0,3.24-8.44h-5.2a16.71,16.71,0,0,0-3.72.37l-.53-2.07a19.08,19.08,0,0,0,4.19.37h5.47a35.14,35.14,0,0,0,.37-6.16c5.2.79,5.73.95,5.73,1.65,0,.47-.26.79-1.91,1.38a26.46,26.46,0,0,1-.32,3.13Zm2.71-21.29a30.86,30.86,0,0,1-6.8,9.66,1.09,1.09,0,0,0,.32.21,34.82,34.82,0,0,0,12.8,3.88c.26,0,.16.53-.11.58-1.22.32-1.86,1.06-2.34,2.66-.1.53-.37.74-.74.74a9.24,9.24,0,0,1-2.12-.58,32,32,0,0,1-9-4.94l-1-.8c-4,3-9.18,4.83-16.14,6.21-.32.06-.53-.63-.21-.74,6.16-2.23,10.72-4.62,14.17-7.59a33.46,33.46,0,0,1-5-8.18,28.25,28.25,0,0,1-6.11,5.26c-.21.16-.63-.26-.47-.48A31.43,31.43,0,0,0,628,21a24.44,24.44,0,0,0,1.43-4.88c4.62,1.49,5.36,1.86,5.36,2.39s-.63,1-2.22,1.11a23.88,23.88,0,0,1-2.34,3.93h12.85c2.12-2.65,2.55-2.92,2.92-2.92s.69.27,2.86,2.23c1,.85,1.28,1.17,1.28,1.49s-.16.53-.69.53Zm-15.24,0-.21.26a25.43,25.43,0,0,0,6,7.49,32,32,0,0,0,5.31-7.75Z"/><path class="cls-1" d="M677.33,42.94a46.14,46.14,0,0,1-1.54,9.77,29,29,0,0,1-6.64,11.78c-.21.27-.79-.21-.63-.48a36.33,36.33,0,0,0,4.24-12.21c.75-3.82,1-8.06,1-17a77.58,77.58,0,0,0-.27-8.28c1.91.9,2.66,1.33,4.51,2.39h8.92c1.7-1.75,2-2,2.34-2s.64.21,2.28,1.64c.8.75,1,1.07,1,1.38s-.27.69-1.43,1.49v3.45c0,5.84.16,8.44.16,9.5S690.49,46,689.06,46c-1.22,0-1.7-.37-1.7-1.38v-1.7ZM671,19.9a23.5,23.5,0,0,0,4.14.37h12.95c2.18-2.55,2.6-2.76,2.92-2.76s.74.21,3.08,2c1,.9,1.27,1.22,1.27,1.54s-.15.53-.69.53H675.15a14.85,14.85,0,0,0-3.61.37Zm16.4,10.3h-9.77v4c0,2.81-.05,5.25-.21,7.43h10ZM711,47.93c0,6.85.16,12.64.16,14.44,0,1.38-.64,1.91-2.39,1.91-1.33,0-1.81-.48-1.81-1.54s.21-4.51.21-11.84V35.67H700c-.27,6.53-1,11.09-2.39,14.91-1.91,5.58-5.21,9.51-11.31,14-.32.21-.9-.38-.64-.64,4.67-4.83,7.33-8.81,8.76-14.18,1.22-4.4,1.81-9.82,1.81-18.36a68.34,68.34,0,0,0-.37-8.71,29.68,29.68,0,0,1,4.51,2.12,41.29,41.29,0,0,0,9.71-5.25,15,15,0,0,0,2.82-2.6c3.93,3.13,4.3,3.61,4.3,4.08s-.64.75-2.6.32a55.37,55.37,0,0,1-14.5,4.78v4c0,1.48,0,2.86-.05,4.19h12.21c2.18-2.65,2.55-2.92,2.87-2.92s.74.27,3.13,2.18c1.06.9,1.32,1.22,1.32,1.54s-.21.53-.74.53H711Z"/><path class="cls-1" d="M39.68,1.19A36.06,36.06,0,1,1,3.62,37.24,36.1,36.1,0,0,1,39.68,1.19m0-1.19A37.25,37.25,0,1,0,76.92,37.24,37.29,37.29,0,0,0,39.68,0Z"/><path class="cls-1" d="M37.24,6.06A36.06,36.06,0,1,1,1.19,42.11a36.09,36.09,0,0,1,36.05-36m0-1.19A37.25,37.25,0,1,0,74.49,42.11,37.29,37.29,0,0,0,37.24,4.87Z"/><path class="cls-1" d="M44.75,6.64A36.06,36.06,0,1,1,8.7,42.7,36.1,36.1,0,0,1,44.75,6.64m0-1.18A37.25,37.25,0,1,0,82,42.7,37.29,37.29,0,0,0,44.75,5.46Z"/><path class="cls-1" d="M40,8.07A36.06,36.06,0,1,1,4,44.12,36.1,36.1,0,0,1,40,8.07m0-1.19A37.25,37.25,0,1,0,77.25,44.12,37.29,37.29,0,0,0,40,6.88Z"/></g></g></svg>