<svg xmlns="http://www.w3.org/2000/svg" viewBox="0 0 43.28 273.37"><defs><style>.cls-1{fill:#231815;}</style></defs><g id="レイヤー_2" data-name="レイヤー 2"><g id="お客様用レイヤー"><path class="cls-1" d="M20.94.63a19,19,0,1,1-19,19,19,19,0,0,1,19-19m0-.63A19.66,19.66,0,1,0,40.6,19.66,19.67,19.67,0,0,0,20.94,0Z"/><path class="cls-1" d="M19.66,3.2a19,19,0,1,1-19,19,19,19,0,0,1,19-19m0-.63A19.66,19.66,0,1,0,39.31,22.23,19.68,19.68,0,0,0,19.66,2.57Z"/><path class="cls-1" d="M23.62,3.51a19,19,0,1,1-19,19,19,19,0,0,1,19-19m0-.63A19.66,19.66,0,1,0,43.28,22.54,19.68,19.68,0,0,0,23.62,2.88Z"/><path class="cls-1" d="M21.12,4.26a19,19,0,1,1-19,19,19,19,0,0,1,19-19m0-.63A19.66,19.66,0,1,0,40.77,23.29,19.68,19.68,0,0,0,21.12,3.63Z"/><path class="cls-1" d="M15.65,61.51c0,1.52-.7,2.56-1.58,2.56a.75.75,0,0,1-.78-.77.84.84,0,0,1,.54-.8,2.48,2.48,0,0,0,1.4-2.32c0-.11.25-.11.27,0a5.68,5.68,0,0,1,.13.85h5.21V59.84a8.39,8.39,0,0,0-.1-1.41c2,.21,2.21.36,2.21.57s-.16.32-.67.55V61h5.47c.55-.68.69-.76.82-.76s.3.12,1.1.86c.42.38.46.51.46.65s-.14.36-.74.36a.55.55,0,0,0-.46.19,8,8,0,0,1-1.43,1.21c-.07.06-.2,0-.17-.13a9.83,9.83,0,0,0,.63-1.9Zm4.28,8.59a15.36,15.36,0,0,0,.55-2.68H18.12v.13c0,.49-.23.68-.8.68s-.61-.15-.61-.58.06-.82.06-2.74a20,20,0,0,0-.07-2.15,14.87,14.87,0,0,1,1.65.82H24.9c.59-.63.69-.68.8-.68s.29,0,.89.57c.29.24.35.36.35.47s-.1.25-.52.53v.69c0,1.48.06,2.09.06,2.28,0,.38-.29.59-.82.59s-.61-.16-.61-.61h-2.9a18.6,18.6,0,0,1-1.6,2.68h5.78c.59-.67.68-.73.8-.73s.26,0,.91.61c.3.27.36.38.36.5s-.1.26-.53.53v1c0,1.94.07,2.82.07,3.1,0,.46-.3.67-.85.67s-.63-.16-.63-.59v-.4H16.68v.42c0,.51-.21.72-.8.72s-.65-.19-.65-.59.08-1,.08-3.14a25.34,25.34,0,0,0-.1-2.94,9,9,0,0,1,1.64.82Zm6.53.47H16.68v3.76h9.78Zm-1.41-6.52H18.12v2.89h6.93Z"/><path class="cls-1" d="M16.9,87.58c0,4.31-.19,6.59-.87,8.38a9.14,9.14,0,0,1-3.23,4.27c-.11.08-.34-.13-.25-.23a10.34,10.34,0,0,0,2.25-4.2,27.66,27.66,0,0,0,.6-7.31,31.85,31.85,0,0,0-.15-4.37c2.11.23,2.36.3,2.36.55s-.12.3-.71.57Zm5.57,1.61c0,5.45.08,8,.08,8.72,0,.42-.33.63-.92.63S21,98.39,21,98c0-.7.1-3,.1-9.1a33.68,33.68,0,0,0-.12-4.1c1.88.19,2.22.28,2.22.57s-.13.28-.68.49Zm5.78.34c0,6.79.11,9.16.11,10,0,.45-.29.66-.91.66s-.69-.15-.69-.55c0-.57.06-2.87.06-9.46,0-3.84,0-5.07-.11-6,1.92.19,2.26.29,2.26.55s-.13.32-.72.57Z"/><path class="cls-1" d="M14.06,112.26a14.22,14.22,0,0,0,1.63.11h6.84c.81-1,.95-1.06,1.06-1.06s.27.07,1.14.8c.4.32.48.43.48.55s-.06.19-.25.19H15.73a8.91,8.91,0,0,0-1.48.11ZM28.59,116c0,5,.06,6.54.06,7.58a1.32,1.32,0,0,1-.59,1.2,2.23,2.23,0,0,1-1.31.36c-.29,0-.37-.08-.4-.32-.08-.59-.52-.88-2.38-1.2-.17,0-.13-.32,0-.32,1.37.11,2.09.17,2.85.17.23,0,.32-.12.32-.36V109.71H16.2a6.76,6.76,0,0,0-1.48.15l-.19-.72a12.14,12.14,0,0,0,1.65.1H27c.63-.67.73-.74.84-.74s.25.07.95.64c.3.25.38.34.38.46s-.06.21-.53.59Zm-7.07-.61c.59-.62.68-.7.8-.7s.27.08.91.59c.29.25.36.36.36.49s-.07.25-.51.54v1.16c0,2.18.06,3.26.06,3.57,0,.49-.29.66-.86.66s-.59-.15-.59-.55v-.8H16.9v1.1c0,.46-.32.63-.85.63s-.59-.17-.59-.51.06-1.12.06-3.33c0-1.59,0-2.5-.1-3.62a12.2,12.2,0,0,1,1.64.77Zm-4.62.48v4h4.79v-4Z"/><path class="cls-1" d="M14.36,148.93c0-.59.09-1.16.09-1.83,0-1.33-.28-1.67-1.5-2.07-.11,0-.07-.26,0-.25.38.06.67.12.82.12a.94.94,0,0,0,.89-.53c.72-1.24,2-3.44,3.33-6.18,0-.09.28,0,.24.1-.93,2.45-1.76,4.37-2.64,6.4a2.88,2.88,0,0,0-.23,1.2c0,.83.67,1.8.67,2.69s-.4,1.26-.93,1.26S14.36,149.53,14.36,148.93Zm.32-8.86A5.06,5.06,0,0,0,13,137.89s0-.19.1-.17c1.84.25,2.92,1.06,2.92,1.94a.79.79,0,0,1-.72.85C15,140.51,14.83,140.4,14.68,140.07ZM16,135.25a4.74,4.74,0,0,0-1.65-1.94c-.06,0,0-.19.09-.17,1.88.3,3,1.12,3,2a.77.77,0,0,1-.71.84C16.41,136,16.3,135.91,16,135.25Zm12,6c.78-.93.91-1,1-1s.31.12,1.09.78c.36.31.45.44.45.55s-.07.19-.25.19H23.71a28.47,28.47,0,0,1-1.22,2.63,21.84,21.84,0,0,1-2.07,3.17c2.24-.06,4.48-.21,6.72-.48a12.07,12.07,0,0,0-2.24-3c-.07,0,.1-.19.17-.15,2.62,1.35,4.33,3.29,4.33,4.73a.9.9,0,0,1-.85,1c-.34,0-.55-.27-.76-.89a9.76,9.76,0,0,0-.46-1.26A51.8,51.8,0,0,1,18.84,149c-.17.46-.32.63-.51.63s-.27-.08-.68-2.09a10.12,10.12,0,0,0,1.06.06c.38,0,.76,0,1.14,0a18.83,18.83,0,0,0,1.33-3,18.67,18.67,0,0,0,.82-2.83H19a6,6,0,0,0-1.14.12l-.21-.72a6.19,6.19,0,0,0,1.35.13h3.61V137.4H19.87a5.85,5.85,0,0,0-1.14.11l-.19-.72a7,7,0,0,0,1.33.13h2.75v-1.37a18.64,18.64,0,0,0-.13-2.73c1.94.19,2.13.34,2.13.55s-.12.3-.59.49v3.06h3.1c.74-.93.87-1,1-1s.25.1,1.05.8c.38.29.47.42.47.53s-.06.18-.25.18H24v3.89Z"/><path class="cls-1" d="M17.13,159.42a6.08,6.08,0,0,0-1.44.15l-.19-.78a8.41,8.41,0,0,0,1.59.15h3.6c0-.68,0-1.21-.1-1.73,1.88.21,2.11.38,2.11.57s-.15.29-.67.5v.66h3.88c.57-.63.68-.7.8-.7s.23.07.85.55c.29.25.36.36.36.51s-.05.21-.51.52V161h.76c.67-.78.82-.87.93-.87s.27.09.95.64c.29.25.38.4.38.54s-.06.17-.25.17H27.41c0,1.19.06,1.78.06,1.95,0,.42-.33.63-.86.63s-.55-.13-.55-.49H22V165h4.3c.68-.8.83-.89,1-.89s.28.09,1,.66c.33.29.42.42.42.53s-.06.17-.25.17H22V167h5.68c.78-.87.92-1,1-1s.3.07,1.08.7c.36.3.44.44.44.57s-.06.17-.25.17H14.45a8.84,8.84,0,0,0-1.27.11l-.19-.74a5.38,5.38,0,0,0,1.45.15h6.25v-1.52H15.8a6.75,6.75,0,0,0-1.19.12l-.19-.74a6.21,6.21,0,0,0,1.36.15h4.91v-1.48H16.75a9.38,9.38,0,0,0-1.38.11l-.19-.72a9.44,9.44,0,0,0,1.55.13h4v-1.61H14.61a11.17,11.17,0,0,0-1.45.11l-.19-.74a8.39,8.39,0,0,0,1.58.15h6.14v-1.57Zm.15,14.68c0,.46-.26.65-.81.65s-.61-.16-.61-.53.06-1.09.06-3.31a23.2,23.2,0,0,0-.12-2.85,8.54,8.54,0,0,1,1.66.82h8.15c.57-.69.68-.74.79-.74s.25.05.88.57c.32.28.38.38.38.49s-.08.28-.52.53v1.1c0,2.09.06,3,.06,3.27s-.28.65-.85.65-.59-.16-.59-.52v-.53H17.28Zm8.48-4.75H17.28V171h8.48Zm0,2.13H17.28v1.75h8.48ZM22,161h4v-1.57H22Zm0,.48v1.61h4v-1.61Z"/><path class="cls-1" d="M26.29,197.79c.93-1.14,1.06-1.23,1.21-1.23s.25.09,1.2.91c.44.36.53.49.53.61s-.07.19-.24.19H15.76a11,11,0,0,0-1.48.11l-.21-.72a9.82,9.82,0,0,0,1.64.13h4.94v-8h-5.8a9,9,0,0,0-1.61.11l-.19-.72a13.42,13.42,0,0,0,1.82.13h5.78v-3.08a36.26,36.26,0,0,0-.1-3.91c2.05.21,2.3.38,2.3.59s-.15.32-.7.53v5.87h5.11c1-1.14,1.1-1.23,1.23-1.23s.25.09,1.22.89c.45.38.55.49.55.61s-.06.21-.25.21H22.15v8Z"/><path class="cls-1" d="M20.69,209.42H15a8.15,8.15,0,0,0-1.48.12l-.19-.72A11,11,0,0,0,15,209h5.7a15.21,15.21,0,0,0-.1-2.3c2,.29,2.07.32,2.07.61s-.09.25-.61.45V209h5.13c.84-.93,1-1,1.1-1s.27.1,1.09.8c.38.29.47.4.47.51s-.06.19-.25.19H22.05v1.52h3.67c.55-.62.66-.68.78-.68s.23.06.81.55c.27.23.35.36.35.48s0,.2-.48.47v.44c0,1.1,0,1.57,0,1.71,0,.38-.28.57-.82.57-.38,0-.53-.16-.53-.46v-.11H22.05v1.57h4c.55-.58.65-.64.76-.64s.25.06.85.51c.31.23.37.36.37.48s0,.19-.5.49v1.22h.63c.63-.82.76-.92.87-.92s.29.1,1,.73c.32.24.42.38.42.49s-.08.17-.25.17H27.56c0,1.69.08,2.47.08,2.72,0,.45-.31.62-.89.62-.4,0-.56-.15-.56-.49v-.7H22.07c0,1.27,0,1.92,0,2.5a1.55,1.55,0,0,1-.49,1.13,1.9,1.9,0,0,1-1.3.43c-.24,0-.28,0-.36-.43s-.47-.8-2.07-1.13c-.09,0-.09-.24,0-.24,1.1.06,1.86.11,2.51.11.21,0,.29-.11.29-.32v-2.05H16.2a6.5,6.5,0,0,0-1.39.15l-.18-.74a9,9,0,0,0,1.53.11h4.53V218H14.53a11.19,11.19,0,0,0-1.46.11l-.19-.72a9.09,9.09,0,0,0,1.59.14h6.22V216H16.33a6.66,6.66,0,0,0-1.46.13l-.19-.74a9.29,9.29,0,0,0,1.62.13h4.39v-1.57H16.92v.17c0,.38-.24.55-.76.55s-.6-.13-.6-.48,0-.68,0-2a14.29,14.29,0,0,0-.09-2,8.05,8.05,0,0,1,1.57.74h3.6Zm-3.77,2v2h3.77v-2Zm5.13,2h3.82v-2H22.05Zm0,4.11h4.14V216H22.05Zm0,.47c0,.55,0,1.12,0,1.67h4.12V218Z"/><path class="cls-1" d="M17.7,243.68c0,2.24.06,3,.06,3.57a1.35,1.35,0,0,1-.51,1.05,1.87,1.87,0,0,1-1.12.45c-.23,0-.29-.05-.35-.36-.07-.51-.34-.76-1.67-1.06-.11,0-.09-.27,0-.25a17.57,17.57,0,0,0,2,.1c.22,0,.32-.1.32-.44v-2.45c0-.86,0-1.9.08-3.33a12.17,12.17,0,0,1-3.82,4.51c-.1.05-.25-.14-.17-.21a16,16,0,0,0,3.74-7H14.38a4.82,4.82,0,0,0-1.26.13l-.19-.74a9.69,9.69,0,0,0,1.49.13h4.94c.51-.57.6-.62.74-.62s.22.05.79.62c.27.27.36.38.36.52s-.19.26-.62.32c-.13,0-.23.09-.5.44a10.87,10.87,0,0,1-1.65,1.5c-.07.05-.25-.06-.19-.14a9.89,9.89,0,0,0,1.07-2.16H17.68Zm1-10.94c.65-.59.76-.67.87-.67s.25.08.9.72c.32.31.38.42.38.56s-.16.28-.69.34a17.2,17.2,0,0,1-2.51,2.05,1.44,1.44,0,0,1,.38.91.74.74,0,0,1-.68.78c-.32,0-.47-.13-.68-.66a5.61,5.61,0,0,0-1.77-2.28c-.06-.06,0-.19.09-.18a5.56,5.56,0,0,1,2.34,1.13,12.17,12.17,0,0,0,1.37-2.23H14.66a4.11,4.11,0,0,0-1.14.15l-.21-.77a5.87,5.87,0,0,0,1.32.15Zm8.85,9.34c.57-.6.67-.66.78-.66s.25.06.84.55c.28.27.36.38.36.49s-.08.19-.52.5a27.36,27.36,0,0,1-.55,3.82,2.58,2.58,0,0,1-.81,1.46,2.53,2.53,0,0,1-1.33.42c-.21,0-.34-.08-.36-.27-.08-.61-.4-.8-1.75-1.21-.12,0-.1-.27,0-.25a13.87,13.87,0,0,0,2.18.23c.48,0,.69-.29.89-1.28a19.36,19.36,0,0,0,.4-3.32H24.54a7.78,7.78,0,0,1-1.27,3.21,8.08,8.08,0,0,1-4.66,3c-.13,0-.22-.21-.11-.26A7.87,7.87,0,0,0,22,245.58a7.68,7.68,0,0,0,1.16-3H21.31a6.45,6.45,0,0,0-1.33.13l-.19-.74a6.53,6.53,0,0,0,1.5.13h2a12.47,12.47,0,0,0,.13-2.2c1.86.29,2.05.34,2.05.59s-.09.28-.68.49c0,.4-.06.78-.11,1.12Zm1-7.61a11,11,0,0,1-2.43,3.45.59.59,0,0,0,.11.08,12.49,12.49,0,0,0,4.58,1.39c.1,0,.06.19,0,.21-.43.11-.66.38-.83,1,0,.19-.14.26-.27.26a3,3,0,0,1-.76-.21,11.14,11.14,0,0,1-3.21-1.76l-.34-.29a14.11,14.11,0,0,1-5.78,2.22c-.11,0-.19-.22-.07-.26a16,16,0,0,0,5.07-2.72,11.61,11.61,0,0,1-1.8-2.93,10.22,10.22,0,0,1-2.19,1.89c-.07.05-.23-.1-.17-.18a11.2,11.2,0,0,0,2.24-3.49,8.62,8.62,0,0,0,.51-1.75c1.66.53,1.92.67,1.92.86s-.22.36-.79.4a8.79,8.79,0,0,1-.84,1.4H28c.76-1,.91-1,1-1s.25.09,1,.79c.36.31.45.42.45.54s0,.19-.24.19Zm-5.45,0-.08.09a9.14,9.14,0,0,0,2.15,2.68,11.65,11.65,0,0,0,1.9-2.77Z"/><path class="cls-1" d="M15.59,265.63a15.67,15.67,0,0,1-.55,3.49,10.36,10.36,0,0,1-2.37,4.22c-.08.09-.29-.08-.23-.17A13,13,0,0,0,14,268.8a31.85,31.85,0,0,0,.34-6.1c0-1.6,0-2.09-.09-3a17.72,17.72,0,0,1,1.61.85H19c.61-.63.71-.7.84-.7s.23.07.82.59c.28.26.36.38.36.49s-.1.25-.52.53v1.24c0,2.09.06,3,.06,3.4s-.26.59-.78.59-.61-.14-.61-.5v-.6Zm-2.28-8.25a8.12,8.12,0,0,0,1.49.13h4.63c.78-.91.93-1,1.05-1s.26.07,1.1.72c.36.32.45.43.45.55s-.05.19-.24.19h-7a5.58,5.58,0,0,0-1.29.13Zm5.87,3.69H15.69v1.42c0,1,0,1.88-.08,2.66h3.57Zm8.46,6.34c0,2.45.05,4.52.05,5.17,0,.49-.22.68-.85.68-.47,0-.65-.17-.65-.55s.08-1.61.08-4.23V263H23.71a17.91,17.91,0,0,1-.86,5.34,9.9,9.9,0,0,1-4.05,5c-.11.07-.32-.14-.22-.23a11.06,11.06,0,0,0,3.13-5.07,24.44,24.44,0,0,0,.65-6.58,23.25,23.25,0,0,0-.14-3.11,10,10,0,0,1,1.62.76,15.13,15.13,0,0,0,3.47-1.88,5.43,5.43,0,0,0,1-.93c1.41,1.12,1.54,1.29,1.54,1.46s-.23.27-.93.11a19.77,19.77,0,0,1-5.19,1.71v1.45c0,.53,0,1,0,1.5h4.37c.78-.95.92-1.05,1-1.05s.27.1,1.12.78c.38.33.48.44.48.55s-.08.19-.27.19H27.64Z"/></g></g></svg>